<?xml version="1.0" encoding="utf-8"?>
<!-- Generator: Adobe Illustrator 24.3.0, SVG Export Plug-In . SVG Version: 6.00 Build 0)  -->
<svg version="1.1" id="Camada_1" xmlns="http://www.w3.org/2000/svg" xmlns:xlink="http://www.w3.org/1999/xlink" x="0px" y="0px"
	 viewBox="0 0 3319 3266.2" style="enable-background:new 0 0 3319 3266.2;" xml:space="preserve">
<style type="text/css">
	.st0{opacity:0.5;}
	.st1{fill-rule:evenodd;clip-rule:evenodd;fill:#ADDBF2;}
	.st2{fill-rule:evenodd;clip-rule:evenodd;fill:#FCEBEC;}
	.st3{opacity:0.14;}
	.st4{fill-rule:evenodd;clip-rule:evenodd;fill:#D98C8A;}
	.st5{opacity:0.5;fill-rule:evenodd;clip-rule:evenodd;fill:#CCCCCC;enable-background:new    ;}
	.st6{fill-rule:evenodd;clip-rule:evenodd;fill:#EECCDC;}
	.st7{fill-rule:evenodd;clip-rule:evenodd;fill:#EC7070;}
	.st8{fill-rule:evenodd;clip-rule:evenodd;}
	.st9{fill-rule:evenodd;clip-rule:evenodd;fill:#D06461;}
	.st10{fill:#FCEBEC;}
	.st11{fill-rule:evenodd;clip-rule:evenodd;fill:#DDB0C8;}
	.st12{fill-rule:evenodd;clip-rule:evenodd;fill:#ECAFA3;}
	.st13{fill-rule:evenodd;clip-rule:evenodd;fill:#F7C13E;}
	.st14{fill-rule:evenodd;clip-rule:evenodd;fill:#204EB2;}
	.st15{fill-rule:evenodd;clip-rule:evenodd;fill:#6FC4F7;}
	.st16{fill-rule:evenodd;clip-rule:evenodd;fill:#F8D8B8;}
	.st17{fill-rule:evenodd;clip-rule:evenodd;fill:#E4F9FF;}
	.st18{fill-rule:evenodd;clip-rule:evenodd;fill:#2E2C36;}
	.st19{filter:url(#Adobe_OpacityMaskFilter);}
	.st20{fill-rule:evenodd;clip-rule:evenodd;fill:#FFFFFF;}
	.st21{mask:url(#lower-bodysitting-on-floorspread-out-3-mask-2_1_);fill-rule:evenodd;clip-rule:evenodd;fill:#2E2C36;}
	.st22{fill-rule:evenodd;clip-rule:evenodd;fill:#3B3D4A;}
	.st23{fill:none;stroke:#FFFFFF;stroke-width:10;}
	.st24{fill-rule:evenodd;clip-rule:evenodd;fill:#3880B2;}
	.st25{fill-rule:evenodd;clip-rule:evenodd;fill:#F7C8A9;}
	.st26{fill-rule:evenodd;clip-rule:evenodd;fill:#353644;}
	.st27{fill-rule:evenodd;clip-rule:evenodd;fill:#2C262B;}
	.st28{fill-rule:evenodd;clip-rule:evenodd;fill:#3E454F;}
	.st29{fill:none;stroke:#000000;stroke-width:4;}
	.st30{fill-rule:evenodd;clip-rule:evenodd;fill:#9B5120;}
	.st31{fill-rule:evenodd;clip-rule:evenodd;fill:#E93737;}
	.st32{fill-rule:evenodd;clip-rule:evenodd;fill:#F9C818;}
	.st33{fill-rule:evenodd;clip-rule:evenodd;fill:#1BC0D7;}
	.st34{fill-rule:evenodd;clip-rule:evenodd;fill:#C5EAF9;}
	.st35{fill-rule:evenodd;clip-rule:evenodd;fill:#56ACF6;}
	.st36{fill:#0AAFFF;}
	.st37{fill:#642228;}
	.st38{fill:#DE5857;}
	.st39{fill:#96722E;}
	.st40{fill:#F7C13E;}
	.st41{opacity:0.95;}
	.st42{fill:#FFFFFF;}
</style>
<g id="Blobs" transform="translate(1503.000000, 1964.000000) scale(-1, 1) translate(-1503.000000, -1964.000000) translate(380.000000, 664.000000) scale(1 1)" class="st0">
	<g id="Blobs_x2F_6">
		<path id="Shape" class="st1" d="M1483-102.1c-222.6-127.2-510.2-189-756.3-94.3C613-152.7,524.6-75.6,469.8,20
			c-61.8,108-80.5,239.5-44.1,373.6c33.7,124,103.7,234.9,181.4,337.5l8.6,11.3c8.7,11.6,17.3,23.9,18.9,38.1
			c1.2,10.7-1.7,21.3-4.8,31.5l-0.6,1.9c-32.7,107.5-39.4,211.4-25.4,310.3l0,0c24.8,176.1,115.2,336.1,240.6,471.1
			c96,103.5,212.7,192.4,336.1,262.9c207.6,118.6,426,178.9,621.7,183l0.1,0c34,0.8,67.5-0.2,100-2.8
			c211.6-17.3,386.5-106.1,476.1-262.9c170.8-299-28.9-739.5-448.1-1019C2028.4,471.8,1843.4,103.8,1483-102.1z M2433.9,457.6
			c-75.8-43.3-161-36.8-190.3,14.6c-29.3,51.3,8.3,128,84.1,171.3c75.8,43.3,161,36.8,190.3-14.6
			C2547.3,577.6,2509.7,500.9,2433.9,457.6z"/>
	</g>
</g>
<path id="Screen" class="st2" d="M436,2131.9V299.2c0-49.1,28.3-89,63.3-89h2539.3c35,0,63.3,39.8,63.3,89v1828.5
	c0,2.3-1.3,4.2-3,4.2H436z"/>
<g id="Blobs_1_" transform="translate(1503.000000, 1964.000000) scale(-1, 1) translate(-1503.000000, -1964.000000) translate(380.000000, 664.000000) scale(1 1)" class="st3">
	<g id="Blobs_x2F_3">
		<path id="Path" class="st4" d="M1561.3-154.4c83.3,41,143.6,115.3,186.1,202.1c42.7,86.9,67.3,186.3,35.5,259.8
			c-32,73.3-120.5,120.4-205.1,152.5s-165.7,49.4-235.8,27.6c-70-21.8-129.3-82.6-163.6-156.8c-34.3-74.3-43.4-162.1-24.6-254.7
			c18.8-92.6,65.5-189.8,141.7-234.6C1372.1-203.2,1478-195.5,1561.3-154.4z"/>
		<path id="Path_2_" class="st4" d="M906.2-171.8C1042.5-132.3,1184.4-91.5,1277,51c92.9,142.2,136.4,385.6,65.5,591.1
			c-71,205.5-256.8,373-432.8,466.2s-342.6,112-492.2,67.2c-149.2-45-282-153.4-332.3-326.7c-50-173.2-17.8-411.4,66.4-611.4
			c84-200.5,220.3-363,353.9-425C638.7-249.7,769.7-211.5,906.2-171.8z"/>
	</g>
</g>
<ellipse id="Floor" class="st5" cx="1684.8" cy="3032.8" rx="1602" ry="58"/>
<g id="Pet" transform="translate(779.000000, 2795.500000) scale(-1, 1) translate(-779.000000, -2795.500000) translate(0.000000, 2250.000000) scale(1 1)">
	<g id="Pet_x2F_Cat_2">
		<g id="Animal" transform="translate(332.000000, 597.000000)">
			<path id="Fill-1_14_" class="st6" d="M945.4,17.6c0,0,10.3-34.5,57.9-59.9l-2.1,47.2L945.4,17.6z"/>
			<path id="Fill-3_8_" class="st7" d="M1001.1-38.8c-35.4,19.9-48.7,44.8-52.5,53.7l50.7-11.6L1001.1-38.8z M942.5,20.3l1-3.3
				c0.4-1.4,11-35.6,58.8-61.1l3.1-1.7l-2.3,52.2L942.5,20.3z"/>
			<path id="Fill-5_4_" class="st7" d="M975.8,15.6c0,0,8-36.3,26-55.6l-1.9,51.6L975.8,15.6z"/>
			<path id="Fill-7_4_" class="st6" d="M1013.6,31.4c0,0,10.3-34.5,57.9-59.9l-2.5,60.4L1013.6,31.4z"/>
			<path id="Fill-9_2_" class="st7" d="M1016.4,29.4l50.6,0.4l2.2-54.9C1032.8-4.5,1019.8,21.3,1016.4,29.4L1016.4,29.4z
				 M1070.9,33.9l-60-0.5l0.8-2.5c0.4-1.4,11-35.6,58.8-61.1l3.1-1.6L1070.9,33.9z"/>
			<path id="Fill-11_2_" class="st7" d="M1043.9,29.4c0,0,8-36.3,26-55.6l-1.9,51.6L1043.9,29.4z"/>
			<path id="Fill-13_2_" class="st6" d="M1124.4,166.7c-7.4,20.6-23.4,23.4-23.4,23.4L991.8,193l-76.5-90.7l-18.5,114.2H381.4
				l-9.7-36.8c0,0-84.5-239.3,35.7-316.2c120.2-76.9,240.4-21.7,315.1,61.7C786.9-2.9,892.3,32,920.2,40.2
				c12.6-18.2,34-35.3,70.5-37.6c81.7-5.2,113.2,57.2,110.3,104.6c0,0-1.7,8.6,8,16C1118.7,130.7,1131.8,146.1,1124.4,166.7"/>
			<path id="Fill-15_3_" class="st6" d="M843.2,76.2c0,0,95-1,135.3,46.7c40.3,47.7,40.1,47.3,49.9,47.3c9.8,0,40.5-0.4,40.5-0.4
				l-10,48.9l-190.4-2.3L843.2,76.2z"/>
			<path id="Fill-17_6_" class="st2" d="M1164,219.4h-25.1c-13.7,0-24.8-11.1-24.8-24.8c0-13.7,11.1-24.8,24.8-24.8h25.1
				c13.7,0,24.8,11.1,24.8,24.8C1188.9,208.3,1177.8,219.4,1164,219.4"/>
			<path id="Fill-19_3_" class="st7" d="M1138.9,171.7c-12.6,0-22.8,10.2-22.8,22.8c0,12.6,10.2,22.8,22.8,22.8h25.1
				c12.6,0,22.8-10.2,22.8-22.8c0-12.6-10.2-22.8-22.8-22.8H1138.9z M1164,221.4h-25.1c-14.8,0-26.8-12-26.8-26.8s12-26.8,26.8-26.8
				h25.1c14.8,0,26.8,12,26.8,26.8S1178.8,221.4,1164,221.4L1164,221.4z"/>
			<path id="Fill-21_2_" class="st2" d="M1154,186.1c0,0,7.7,3.4,9,12.3c1.3,8.9,0.7,21,0.7,21"/>
			<path id="Fill-23_3_" class="st7" d="M1165.6,219.5l-4-0.2c0-0.1,0.6-12-0.6-20.6c-1.1-7.6-7.6-10.6-7.9-10.8l1.6-3.7
				c0.4,0.2,8.8,4,10.2,13.8C1166.3,207.1,1165.7,219,1165.6,219.5"/>
			<path id="Fill-25_1_" class="st6" d="M847.7,77.2c0,0,85.5-2.6,124.3,38.8c38.8,41.4,45.1,55.1,63.5,53.5c18.4-1.6,47.7,1,47.7,1
				l-17.8,16.8"/>
			<path id="Fill-27_2_" class="st7" d="M1066.7,188.8l-2.7-2.9l14.5-13.7c-8.9-0.7-29.2-1.9-42.9-0.7c-15.2,1.3-22.7-7.2-43-29.8
				c-5.9-6.6-13.2-14.8-22.1-24.3c-37.7-40.3-121.9-38.2-122.8-38.2l-0.1-4c0.2,0,21.9-0.6,48,3.9c24.2,4.2,57.4,13.7,77.8,35.5
				c8.9,9.5,16.3,17.8,22.2,24.4c19.8,22.2,26.5,29.6,39.6,28.5c18.3-1.6,46.9,0.9,48.1,1l4.4,0.4L1066.7,188.8z"/>
			<polygon id="Fill-29_2_" class="st7" points="973.8,138.3 973.7,134.3 1035.8,133.2 979.8,99.3 981.9,95.9 1049.8,137 			"/>
			<path id="Fill-31_1_" class="st7" d="M991.4,166.7c0.2-0.2,0.5-0.6,0.5-1.3h-4c0-1.6,0-1.9,27.5-17.4
				c13.1-7.4,26.3-14.7,26.4-14.8l1.9,3.5C1024.7,147.4,993.6,164.8,991.4,166.7"/>
			<path id="Fill-33_1_" class="st7" d="M1118.2,179c-14.4,20.7-47.6-6.4-47.6-6.4s-5-5.3-0.3-18.7c4.7-13.4,21.3-15.2,21.3-15.2
				l31,0.5l-8.7,5.6l10.4,1.1C1124.3,145.9,1132.6,158.3,1118.2,179"/>
			<path id="Fill-35_2_" class="st2" d="M1088.5,218.7h-29.6c-13.7,0-24.8-11.1-24.8-24.8c0-13.7,11.1-24.8,24.8-24.8h29.6
				c13.7,0,24.8,11.1,24.8,24.8C1113.3,207.6,1102.2,218.7,1088.5,218.7"/>
			<path id="Fill-37_1_" class="st7" d="M1058.9,171c-12.6,0-22.8,10.2-22.8,22.8c0,12.6,10.2,22.8,22.8,22.8h29.6
				c12.6,0,22.8-10.2,22.8-22.8c0-12.6-10.2-22.8-22.8-22.8H1058.9z M1088.5,220.7h-29.6c-14.8,0-26.8-12-26.8-26.8
				s12-26.8,26.8-26.8h29.6c14.8,0,26.8,12,26.8,26.8S1103.3,220.7,1088.5,220.7L1088.5,220.7z"/>
			<path id="Fill-39_1_" class="st2" d="M1076.3,185.4c0,0,8.2,3.4,9.6,12.3c1.4,8.9,0.7,21,0.7,21"/>
			<path id="Fill-41_2_" class="st7" d="M1088.6,218.8l-4-0.2c0-0.1,0.6-12-0.7-20.6c-1.2-7.6-8.1-10.6-8.4-10.8l1.5-3.7
				c0.4,0.2,9.3,4,10.8,13.8C1089.3,206.4,1088.6,218.3,1088.6,218.8"/>
			<path id="Fill-43_1_" class="st8" d="M1101.5,138.6c0,0-1.7,19.8,24.3,23.7c0,0,2.6-6.1-0.1-15.1c-2.7-9-3.4-8.4-3.4-8.4
				L1101.5,138.6z"/>
			<path id="Fill-45_1_" class="st7" d="M781.9,170.3c-0.4,0-45-0.7-66.5-2.1c-12.2-0.8-31.7-34.5-62.5-90
				c-20.6-37.1-41.8-75.5-59.2-96C555.6-62.7,457-71.5,456-71.6l0.3-4c0.3,0,25.5,2.2,55.2,10c27.5,7.2,64.7,21,85.3,45.2
				c17.6,20.8,39,59.3,59.6,96.6c23.8,42.9,48.3,87.2,59.2,88c21.4,1.4,65.9,2.1,66.3,2.1L781.9,170.3z"/>
			<path id="Fill-47_2_" class="st2" d="M699.8,160.3c-11.9,12.1-30.4,21.7-51.6,29.2l-27.8-65.8c15.6-4.4,24.8-7.6,24.8-7.6
				c0.5-19.9,22.1-29.1,22.1-29.1C693.1,72,748.1,111.2,699.8,160.3"/>
			<path id="Fill-49_1_" class="st7" d="M623.1,125l26.2,62c22.2-8.1,38.7-17.5,49.1-28.1h0c28.5-29,17.5-50.2,11.4-58
				c-10.5-13.5-29.5-19.1-41.5-12.1l-0.2,0.1c-0.2,0.1-20.5,9-20.9,27.3l0,1.4l-1.3,0.5C645.8,118,637.2,121,623.1,125L623.1,125z
				 M647.1,192l-29.4-69.6l2.2-0.6c12.1-3.4,20.4-6.2,23.5-7.2c0.6-8.2,4.7-15.8,11.9-22c5.3-4.6,10.4-7,11.3-7.4
				c13.6-7.8,34.9-1.8,46.5,13.2c13.9,18,9.6,41.6-11.7,63.3h0c-11.1,11.3-28.7,21.3-52.4,29.7L647.1,192z"/>
			<path id="Fill-51_1_" class="st6" d="M648.2,189.5c-65,23.1-154.9,27.4-154.9,27.4l-177.4-0.8c0,0-16.7-5-16.7-29.2
				c0-24.1,25-30,25-30s76.8-4.9,160.6-9.5c54.7-3,106.2-15.5,135.5-23.7L648.2,189.5z"/>
			<path id="Fill-53_2_" class="st7" d="M316.2,214.1l177,0.8c2.6-0.1,89.1-4.6,152.3-26.6l-26.3-62.2
				c-27.2,7.6-79.4,20.3-134.2,23.3c-80.9,4.5-156.3,9.2-160.4,9.5c-2.2,0.6-23.3,6.5-23.3,28C301.2,207.9,314.2,213.4,316.2,214.1
				L316.2,214.1z M493.3,218.9l-177.7-0.8l-0.3-0.1c-0.2-0.1-4.7-1.5-9.2-6c-4.1-4.2-8.9-11.9-8.9-25c0-25.4,26.3-31.9,26.5-31.9
				l0.3,0c0.8,0,77.8-4.9,160.6-9.5c55.6-3.1,108.5-16.1,135.1-23.7l1.7-0.5l29.3,69.4l-2,0.7C584.3,214.4,494.3,218.9,493.3,218.9
				L493.3,218.9z"/>
			<path id="Fill-55_1_" class="st2" d="M789.7,214.2h-29.6c-13.7,0-24.8-11.1-24.8-24.8c0-13.7,11.1-24.8,24.8-24.8h29.6
				c13.7,0,24.8,11.1,24.8,24.8C814.6,203.1,803.4,214.2,789.7,214.2"/>
			<path id="Fill-57_1_" class="st7" d="M760.1,166.5c-12.6,0-22.8,10.2-22.8,22.8c0,12.6,10.2,22.8,22.8,22.8h29.6
				c12.6,0,22.8-10.2,22.8-22.8c0-12.6-10.2-22.8-22.8-22.8H760.1z M789.7,216.2h-29.6c-14.8,0-26.8-12-26.8-26.8s12-26.8,26.8-26.8
				h29.6c14.8,0,26.8,12,26.8,26.8S804.5,216.2,789.7,216.2L789.7,216.2z"/>
			<path id="Fill-59_1_" class="st2" d="M777.5,180.9c0,0,8.2,3.4,9.6,12.3c1.4,8.9,0.7,21,0.7,21"/>
			<path id="Fill-61_1_" class="st7" d="M789.8,214.2l-4-0.2c0-0.1,0.6-12-0.7-20.6c-1.2-7.6-8.1-10.6-8.4-10.8l1.5-3.7
				c0.4,0.2,9.3,4,10.8,13.8C790.5,201.9,789.8,213.7,789.8,214.2"/>
		</g>
	</g>
</g>
<polygon id="Triangle" class="st9" points="2910.5,2354.8 3057,2131.9 2764,2131.9 "/>
<rect id="Rectangle_4_" x="436" y="1936.9" class="st4" width="2665.9" height="229.2"/>
<path id="End-Call" class="st2" d="M2836.8,2009.7h191.5c10.4,0,18.9,8.5,18.9,18.9v52.1c0,10.4-8.5,18.9-18.9,18.9h-191.5
	c-10.4,0-18.9-8.5-18.9-18.9v-52.1C2817.9,2018.1,2826.4,2009.7,2836.8,2009.7z"/>
<g id="Microphone" transform="translate(87.872274, 81.000000)">
	<rect id="Rectangle_5_" x="447.9" y="1993.4" class="st2" width="15.3" height="25.2"/>
	<path id="Rectangle-Copy" class="st2" d="M440.7,2011.3h29.7c2,0,3.6,1.6,3.6,3.6l0,0c0,2-1.6,3.6-3.6,3.6h-29.7
		c-2,0-3.6-1.6-3.6-3.6l0,0C437.1,2013,438.7,2011.3,440.7,2011.3z"/>
	<path id="Rectangle_6_" class="st2" d="M455.6,1928.7L455.6,1928.7c8.2,0,14.8,6.6,14.8,14.8v26.1c0,8.2-6.6,14.8-14.8,14.8l0,0
		c-8.2,0-14.8-6.6-14.8-14.8v-26.1C440.7,1935.3,447.4,1928.7,455.6,1928.7z"/>
	<path id="Path-12" class="st10" d="M430.4,1964.6c2-0.2,3.7,1.3,3.9,3.3c1.4,15,8.1,21.9,21.1,21.9c13.1,0,19.4-5.8,20.2-18.5
		c0.1-2,1.8-3.5,3.8-3.4c2,0.1,3.5,1.8,3.4,3.8c-1.1,16.5-10.6,25.3-27.4,25.3c-16.9,0-26.6-9.9-28.3-28.4
		C427,1966.6,428.4,1964.8,430.4,1964.6z"/>
</g>
<g id="Video" transform="translate(282.000000, 81.000000)">
	<path id="Rectangle_7_" class="st2" d="M419.2,1928.7h74.6c6.5,0,11.7,5.2,11.7,11.7v66.5c0,6.5-5.2,11.7-11.7,11.7h-74.6
		c-6.5,0-11.7-5.2-11.7-11.7v-66.5C407.5,1933.9,412.7,1928.7,419.2,1928.7z"/>
	<polygon id="Rectangle_8_" class="st2" points="510.9,1961.5 537.8,1944.8 537.8,2003.3 510.9,1986.6 	"/>
</g>
<g id="Invite-Participant" transform="translate(568.000000, 1991.000000)">
	<path id="Combined-Shape" class="st2" d="M380.2,55.9c22.7,0,41.6,16.3,45.4,37.8c-11.2,12.2-27.4,19.9-45.4,19.9
		s-34.1-7.7-45.4-19.9C338.7,72.2,357.5,55.9,380.2,55.9z"/>
	<circle id="Oval-Copy" class="st2" cx="380.2" cy="34.3" r="27"/>
	<rect id="Rectangle_9_" x="451.2" y="28.4" class="st2" width="11.9" height="47.6"/>
	<polygon id="Rectangle-Copy-2" class="st2" points="481,46.3 481,58.2 433.4,58.2 433.4,46.3 	"/>
</g>
<g id="Share" transform="translate(1363.000000, 1991.000000)">
	<path id="Rectangle_10_" class="st2" d="M192.6,0.8h207.7c12.1,0,21.9,9.8,21.9,21.9V100c0,12.1-9.8,21.9-21.9,21.9H192.6
		c-12.1,0-21.9-9.8-21.9-21.9V22.7C170.7,10.6,180.5,0.8,192.6,0.8z"/>
	<polygon id="Triangle_1_" class="st11" points="296.5,21.7 333.6,61.4 259.4,61.4 	"/>
	<rect id="Rectangle_11_" x="279.3" y="61.4" class="st11" width="33.4" height="34.4"/>
</g>
<path id="Neck_4_" class="st12" d="M2318.3,2079.8c0,0-3.6,81.2-49.9,109.8c-42,26,47,176.8,142.7,167.8
	c52.4-4.9,64.7-151.5,64.7-151.5s-42.3-8.4-26.7-74.3L2318.3,2079.8z"/>
<path id="Head_4_" class="st12" d="M2393.1,2162.3c-63.5-7.7-109.3-49.4-115.7-118.6c-18.4,2.9-22.8-45.1-17.7-60.6
	c5.1-15.5,21.9-6.4,21.9-6.4c0.9-2.4,1.7-5,2.4-7.7c27.7-113.7,105.4-109.2,105.4-109.2c142.7,7.4,109.2,153.1,101.1,191.7
	C2482.4,2090.2,2454.5,2169.7,2393.1,2162.3z"/>
<path id="Path_1_" class="st12" d="M1955.5,2482.1c-52.3,97.9-63.6,171.1-34.2,219.5c44.2,72.7,107-23.4,132.7-130.7
	c17.2-71.5,43.6-128.6,79.1-171.4L1955.5,2482.1z"/>
<g id="Group-3_4_" transform="translate(695.000000, 361.000000)">
	<g id="Clip-2_3_">
	</g>
</g>
<path id="Fill-4_3_" class="st13" d="M2136.6,2213.2c82.9-26,108.4-27.4,108.4-27.4l87.5,19.1c0,0,48,63.8,52.1,120.7
	c0,0,1.4-74.9,32.9-126.2c0,0,138.7-1.3,191,54c82.6,87.3,81,240.5,81,240.5l-136.3,14.2l55.3-77.9c0,0,3.5,317.3-4.7,399.2
	c-104,116.2-478,26.3-478,26.3s8.1-262.6,9.5-334.4c1.4-71.8-24.9-62.1-61,26.9c-29.6,72.8-123.6-78.1-123.6-78.1
	S2008.4,2253.4,2136.6,2213.2z"/>
<path id="Fill-6_6_" class="st2" d="M2559.8,2612.1c0,0,67.3-24.1,135.7-9.9c0,0-0.9-22.3-0.2-51.8c0.6-24.2,13.8-61.7-34-57.7
	c-55.7,4.7-79.6,5.2-103.8,16.1C2557.5,2508.9,2551.7,2589,2559.8,2612.1"/>
<path id="Fill-8_6_" class="st12" d="M1985.6,2578.3c27.3,40,11.1,40.7,23,62.7c11.9,22,23.1,67.9,36.7,66.7
	c13.6-1.2,14.4-8.7,9-22.9c-5.3-14.2-20.9-59.6-15.1-61.8c5.8-2.2,24.7,87.6,46.3,86.2c21.6-1.4,3.5-47.5-6.3-68.1
	c-9.8-20.6-13.1-35.8-6.9-34.5c6.2,1.3,30,101.8,47.6,98.8c17.6-3,8.7-38.3-1.1-59.2c-9.8-20.8-24.3-53.7-24.3-53.7
	s24.7,32,35.9,70.3c11.2,38.2,18.1,40.2,24.4,36.5c6.3-3.7-2.1-48.7-2.1-48.7s21.1-34.5-5.4-65.3c-26.5-30.8-41.4-63.2-77.9-80.6
	c-36.6-17.4-59.3-2.9-59.3-2.9S1958.3,2538.3,1985.6,2578.3z"/>
<path id="Fill-20_2_" class="st14" d="M2438.1,2727.2l-182.7-50.6c0,0-11.4-12,22.1-15.1c33.4-3.2,382.9-12.5,382.9-12.5
	L2438.1,2727.2z"/>
<path id="Fill-22_1_" class="st15" d="M2956.1,2726.7h-512.5c-9.5,0-17.2-7.7-17.2-17.2l46.5-337.5c0-9.5,7.7-17.2,17.2-17.2h512.5
	c9.5,0,17.2,7.7,17.2,17.2l-46.5,337.5C2973.3,2719,2965.6,2726.7,2956.1,2726.7"/>
<path id="Fill-12_5_" class="st12" d="M2834.8,2726.7c0,0-2.9,5.8-6.8,12s-6.2,2.6-13.3,15.7c-7.1,13.1-27.3,39.2-77,21.2
	c-49.7-18-49.6-29.4-46.9-44.3c2.7-15,7.1-18,1.8-42.8c-5.4-24.8,10.7-55.5,16.7-56.9l6-1.4c0,0,1.2-24.8,11-26.3
	c9.8-1.6,10.9,5.1,10.9,5.1s3-5.8,11.9-5c9,0.9,12.7,17.5,16.3,36.9c3.6,19.4,9.4,70.6,12.3,72.9c2.9,2.3,5.5,0.4,3.3-11.4
	c-2.2-11.7-16.5-57.5-3.8-61.6c12.7-4.1,19.6,8.8,27.7,35.4c8.1,26.6,11.2,31,10.8,38.2l2.5,12.2
	C2829.3,2726.7,2834.8,2726.7,2834.8,2726.7z"/>
<path id="Fill-14_3_" class="st8" d="M2737,2608.6c0,0,0.6-1.7,0,10c-0.2,4.3,0,10.2,1,18.2c3.8,30.2,8.5,77.9,11,92.3
	c2.5,14.4-4.1,4-7.9-29.4c-3.8-33.4-7.4-73.5-7.4-75.4C2733.7,2621.2,2733.8,2611.7,2737,2608.6"/>
<path id="Fill-16_2_" class="st8" d="M2715.9,2679.6c0.9,13.1,2.9,34.8,3.1,37.1c0.3,4.1,1.2,12.1,1.2,12.1s-2.8,0.8-5.4-23.6
	c-0.7-6-2.4-17.1-2.7-24.4c-0.2-6.7-1.7-30.7-0.2-34.4c1.5-3.7,3.8-5,3.8-5S2715,2667.2,2715.9,2679.6z"/>
<polygon id="Fill-1_11_" class="st16" points="998.5,3000.4 1026.5,3103.2 975.5,3120.4 943.5,3019.4 "/>
<polygon id="Fill-2_5_" class="st17" points="946.5,3012.4 982.5,3126.4 930.5,3143.4 892.5,3032.4 "/>
<path id="Fill-3_7_" class="st18" d="M888.5,3020.4c0,0,8,0,18,5s62,74,32,117c0,0-5,3-11,4s-17,19-36,29c0,0,4-13-11-52
	s-101-246-142-248c0,0,16-13,65,43C849.8,2971.3,888.5,3020.4,888.5,3020.4"/>
<path id="Fill-5_3_" class="st17" d="M891.5,3175.4c0,0-17,29-44,24s-34.8-29.7-43.9-50.4c-9.1-20.6-101-247.6-101-247.6
	s10.1-32.7,37.8-26.3c32.1,7.3,62.1,75.3,62.1,75.3l87,180C889.5,3130.4,898.5,3156.4,891.5,3175.4"/>
<g id="Group-9" transform="translate(1757.000000, 530.000000)">
	<g id="Clip-8">
	</g>
	<defs>
		<filter id="Adobe_OpacityMaskFilter" filterUnits="userSpaceOnUse" x="-1057.8" y="2363.3" width="168.3" height="293.5">
			<feColorMatrix  type="matrix" values="1 0 0 0 0  0 1 0 0 0  0 0 1 0 0  0 0 0 1 0"/>
		</filter>
	</defs>
	
		<mask maskUnits="userSpaceOnUse" x="-1057.8" y="2363.3" width="168.3" height="293.5" id="lower-bodysitting-on-floorspread-out-3-mask-2_1_">
		<g class="st19">
			<polygon id="lower-bodysitting-on-floorspread-out-3-path-1_1_" class="st20" points="-889.5,2363.3 -1057.8,2363.3 
				-1057.8,2656.9 -889.5,2656.9 			"/>
		</g>
	</mask>
	<path id="Fill-7_2_" class="st21" d="M-889.5,2635.4l-111-238c0,0-23-41-46-33s-5,45,3,74s88,199,109,215
		C-919.9,2664.5-890.5,2646.4-889.5,2635.4"/>
</g>
<path id="Fill-10_7_" class="st22" d="M927.5,3146.4c0,0,11-29-2-64s-37-62-37-62s25.3-7.9,46.7,43c21.3,51,17.3,78-7.7,85"/>
<path id="Stroke-12" class="st23" d="M919.3,3118.1c0,0,3.2-28.9-11.8-37.3c-15-8.4-38-12.4-41-24.4s-1-30-1-30"/>
<path id="Fill-14_4_" class="st17" d="M2158.4,3139.1c0,0-11,43.9-16,51.8c-5.1,7.9-99,50.2-129,47.3c-30-2.9-80.4-22-87-36.3
	c-6.6-14.4,2.3-58.7,11.8-66.9C1947.6,3126.8,2158.4,3139.1,2158.4,3139.1"/>
<g id="Group-18" transform="translate(0.000000, 332.000000)">
	<path id="Fill-16_3_" class="st24" d="M2608.6,2425.9c0,0,73.9,277.5-94.1,320.5s-355.7,4.1-562-63c-169-55-162-118-377-56
		c-153.8,44.4-550,155-550,155l-41-120c0,0,591-305,826-298c88,2.6,365.2,59,365.2,59L2608.6,2425.9z"/>
</g>
<g id="Group-21" transform="translate(37.000000, 0.000000)">
	<path id="Fill-19_2_" class="st24" d="M2549.8,2792.1c0,0-184.3-381.7-254.3-415.7s-97,7-103,52s-136,473-136,473l155,41
		L2549.8,2792.1z"/>
</g>
<polygon id="Stroke-22" points="2342.2,2729.3 2246.7,2929.1 2251.2,2931.3 2346.7,2731.4 "/>
<path id="Fill-24" class="st25" d="M2115.9,2901.8l-11.7,38.4c46.6,0,83.5,21.2,93.5,26.2l10.5-37.6L2115.9,2901.8z"/>
<path id="Fill-26_1_" class="st17" d="M2078.5,3012.6l101.8,25.3l21.1-76.6c0,0-0.3-0.1-2-1c-10.1-5-50.1-23.7-96.7-23.7"/>
<path id="Fill-28" class="st26" d="M2112.1,3164.7c0,0-71.4,29.4-119.7,10.8c-48.3-18.6-59.5-31-59.2-32.2c0.3-1.2,80.2-70.2,96-77
	c15.7-6.8,56.3-36.2,72.4-10.7c16.1,25.5,40.2,45.1,37.1,63.7C2135.7,3137.8,2112.1,3164.7,2112.1,3164.7"/>
<path id="Fill-30" class="st27" d="M2178,3052.1c0,0-3.9,66-21.8,96.8l-46.7,17.8c0,0,13.5-35.5,2.4-49.6
	c-11.1-14.1-17.4-29.7-17.5-38.7c-0.2-9-40.5-19.4-40.5-19.4s-6.7,15.2-18.7,15.1c-12-0.1-73.9,44.8-73.9,44.8s15.1-16,31-33
	c15.9-17,71.5-71,71.5-71L2178,3052.1z"/>
<path id="Fill-32_1_" class="st28" d="M2183.3,3025.3c0,0,9.9,10.4,3.6,20.3c-6.3,9.9-27.6,4-47.8-1.6
	c-20.3-5.6-68.8-17.6-72.4-24.5c-3.6-7,2.9-21.9,15.9-25.1c0,0-3.8,12.5,1.6,15.7c5.4,3.3,90.2,27.5,93.7,25.2
	C2181.5,3033.1,2183.3,3025.3,2183.3,3025.3"/>
<path id="Fill-34" class="st20" d="M2110.8,3078.6c0,0-26.4-28.5-55.8-20.8c0,0-9.7,1.9-6.2-4.5c3.5-6.4,8.6-6.3,8.6-6.3
	s-0.6-6.3,4.7-7.1c0,0-1.6-6.5,5.7-6.9c0,0,2.3-14.9,18-7.2c15.7,7.6,46.2,13.5,42.2,21.8c-3.9,8.3-6.2,4.8-6.2,4.8
	s1.8,5.5-2.4,10.7c-4.2,5.2-3.6,2.3-3.6,2.3S2120.7,3075.7,2110.8,3078.6"/>
<path id="Stroke-36" class="st29" d="M2125.5,3054.3c0,0-5.9-5.4-15.7-7.6"/>
<path id="Stroke-38" class="st29" d="M2064.1,3031.2c0,0,11,1.4,17.3,4.9"/>
<path id="Stroke-40" class="st29" d="M2052.7,3046.9c0,0,15.1-0.5,21.7,2"/>
<path id="Stroke-42" class="st29" d="M2120.2,3068.5c0,0-9.4-8.3-22.8-12.3"/>
<g id="Group-16_3_" transform="translate(23.000000, 29.000000)">
	<path id="Fill-1_12_" class="st8" d="M2355.5,2062.2c0,0,11.6,27.4,35.7,17L2355.5,2062.2z"/>
	<g id="Group-9_1_" transform="translate(0.000000, 0.515000)">
		<path id="Fill-7_3_" class="st8" d="M2316.4,1977.5c0,0,11.4-13.7,21.8-19.4c6.4-3.6,45.7-11.2,47.1-3.1
			c1.4,7.9-2.6,8.1-18.3,10.7c-15.7,2.6-23,3.2-31.3,7.1C2327.5,1976.5,2318.2,1981.8,2316.4,1977.5"/>
	</g>
	<path id="Fill-10_8_" class="st8" d="M2468.2,1987.6c0,0,1.4-8.3-0.5-13.7c-2-5.4-26.7-27.9-33.9-26c-11.5,3.1-7.4,8.6,7.2,18.4
		c11.7,7.9,16.4,10.9,20.8,16.5C2467.8,1990.4,2467.3,1988.8,2468.2,1987.6"/>
</g>
<g id="Group-124_4_" transform="translate(25.000000, 52.000000)">
	<path id="Stroke-114_4_" d="M2410.7,1943.3l3.8,1.2l-0.4,1.2c-0.3,1-0.6,2.1-1,3.3c-1,3.5-2.1,7.3-3,11.2c-1.1,4.3-2,8.5-2.7,12.5
		l-0.2,1.2c-1.7,10.1-2,17.8-0.4,22l0.1,0.2c8.9,22-3.2,33.1-28.5,25.3l-0.8-0.2l1.2-3.8c22.8,7.3,31.9-0.9,24.3-19.8
		c-2.1-5.2-1.8-14,0.3-25.6c0.7-4.1,1.7-8.3,2.7-12.8c0.9-3.5,1.8-7,2.7-10.2l0.3-1.2c0.2-0.7,0.4-1.4,0.6-2l0.5-1.6L2410.7,1943.3z
		"/>
	<path id="Stroke-122_4_" d="M2312,2096.3l2-3.5l0.7,0.4l0.7,0.3c1,0.5,2.1,1.1,3.4,1.7l0.5,0.3c4.2,2.1,8.9,4.1,13.9,6
		c11.4,4.4,22.8,7.4,33.3,8.4c4.8,0.4,9.3,0.5,13.5,0l0.8-0.1l0.5,4c-4.8,0.6-9.9,0.6-15.2,0.1c-10.9-1-22.6-4.1-34.4-8.7
		c-5.1-2-9.9-4.1-14.2-6.2l-1.6-0.8c-0.7-0.3-1.3-0.7-2-1l-1.1-0.6L2312,2096.3z"/>
</g>
<path id="Fill-12_6_" class="st8" d="M2390.4,2021.9c-0.7,0-1.5-0.3-2-0.8c0,0-5-4.4-12.1-4.2c-7.4,0.3-12.3,3.9-12.3,3.9
	c-1.3,1-3.2,0.7-4.2-0.6c-1-1.3-0.7-3.2,0.6-4.2c0.3-0.2,6.4-4.8,15.8-5.1c9.6-0.3,16.1,5.5,16.4,5.7c1.2,1.1,1.3,3,0.2,4.2
	C2392,2021.6,2391.2,2021.9,2390.4,2021.9"/>
<path id="Fill-14_5_" class="st8" d="M2474.5,2031.1c-0.7,0-1.5-0.3-2-0.8c0,0-5-4.4-12.1-4.2c-7.4,0.3-12.3,3.9-12.3,3.9
	c-1.3,1-3.2,0.8-4.2-0.6c-1-1.3-0.8-3.2,0.6-4.2c0.3-0.2,6.4-4.8,15.8-5.1c9.6-0.3,16.1,5.5,16.4,5.7c1.2,1.1,1.3,3,0.2,4.2
	C2476.1,2030.7,2475.3,2031.1,2474.5,2031.1"/>
<path id="Fill-50-Copy" class="st30" d="M2444.3,2181.5c0,0,40.3-12.6,80.6,0c40.3,12.6,68-6.3,68-6.3s-59.8-19.7-21.1-80.8
	c34.6-54.7-31.1-109.5-38.6-148.5s-5.1-134.3-132.1-141.6c-116.4-6.8-156.6,60.3-160.5,105.2c-3.9,45.4-53.1,62.8-37.8,120.9
	c11.6,44-17.6,92.6-47.8,107.8c0,0,30.2,37,56.6,30.7c26.4-6.3,70.5,3.8,70.5,3.8s38.4-17.7,27.4-51.7
	c-11.1-33.9-35.4-49.4-25.1-88.5c10.3-39.1,43.7-45.9,42.2-80.5c-1.5-34.7,30.1-86.2,90.6-65.6c0,0,65.6-5.2,65.6,41.3
	s13.5,70.6,18.2,84l-9.3,26.4c0,0-19.3,81.8-46.9,105.1C2444.6,2143.2,2437.6,2163.5,2444.3,2181.5"/>
<g id="Group-5_4_" transform="translate(1.000000, 55.000000)">
	<path id="Fill-1_13_" class="st20" d="M2286.3,1986.8c0,5.8-4.7,10.5-10.5,10.5c-5.8,0-10.5-4.7-10.5-10.5
		c0-5.8,4.7-10.5,10.5-10.5C2281.6,1976.3,2286.3,1981,2286.3,1986.8"/>
</g>
<g>
	<path id="Fill-64" class="st20" d="M2907.4,419.7H630.6c-31.1,0-56.1-25.1-56.1-56.1l0,0c0-31.1,25.1-56.1,56.1-56.1h2276.8
		c31.1,0,56.1,25.1,56.1,56.1l0,0C2963.5,394.6,2938.5,419.7,2907.4,419.7"/>
	<path id="Fill-61" class="st31" d="M685.4,364.6c0,15.6-12.6,28.2-28.2,28.2s-28.2-12.6-28.2-28.2s12.6-28.2,28.2-28.2
		S685.4,349,685.4,364.6"/>
	<path id="Fill-62" class="st32" d="M802.3,362.5c0,15.6-12.6,28.2-28.2,28.2S746,378.1,746,362.5c0-15.6,12.6-28.2,28.2-28.2
		S802.3,346.9,802.3,362.5"/>
	<path id="Fill-63" class="st33" d="M923.4,363.6c0,15.6-12.6,28.2-28.2,28.2s-28.2-12.6-28.2-28.2c0-15.6,12.6-28.2,28.2-28.2
		S923.4,348,923.4,363.6"/>
</g>
<path id="Fill-71-Copy" class="st20" d="M1301.3,1536.6h-572c-62.3,0-112.7-46.6-112.7-104.1V823.2c0-57.6,50.4-104.1,112.7-104.1
	h572c62.3,0,112.7,46.6,112.7,104.1v609.2C1414,1489.8,1363.6,1536.6,1301.3,1536.6"/>
<path id="Fill-67" class="st20" d="M2783.6,1539.1H1573c-25.1,0-45.2-20.2-45.2-45.2V751.6c0-25.1,20.2-45.2,45.2-45.2h1210.6
	c25.1,0,45.2,20.2,45.2,45.2v742.3C2828.8,1518.7,2808.4,1539.1,2783.6,1539.1"/>
<path id="Fill-68" class="st33" d="M1938.1,1171.1h-229.8c-25.1,0-45.2-20.2-45.2-45.2V861.3c0-25.1,20.2-45.2,45.2-45.2h229.8
	c25.1,0,45.2,20.2,45.2,45.2v264.5C1983.3,1150.7,1962.9,1171.1,1938.1,1171.1"/>
<path id="Fill-69" class="st33" d="M2325.3,1170.4h-229.8c-25.1,0-45.2-20.2-45.2-45.2V860.6c0-25.1,20.2-45.2,45.2-45.2h229.8
	c25.1,0,45.2,20.2,45.2,45.2v264.5C2370.6,1150.2,2350.4,1170.4,2325.3,1170.4"/>
<path id="Fill-70" class="st33" d="M2709.4,1171.1h-229.8c-25.1,0-45.2-20.2-45.2-45.2V861.3c0-25.1,20.2-45.2,45.2-45.2h229.8
	c25.1,0,45.2,20.2,45.2,45.2v264.5C2754.7,1150.7,2734.3,1171.1,2709.4,1171.1"/>
<path id="Fill-71" class="st34" d="M1915.4,1153.1h-229.8c-25.1,0-45.2-20.2-45.2-45.2V843.4c0-25.1,20.2-45.2,45.2-45.2h229.8
	c25.1,0,45.2,20.2,45.2,45.2v264.5C1960.7,1133,1940.5,1153.1,1915.4,1153.1"/>
<path id="Fill-72" class="st31" d="M1960.9,866.5h-320.3v-33.8c0-19.3,15.5-34.7,34.7-34.7h250.9c19.3,0,34.7,15.5,34.7,34.7V866.5z
	"/>
<path id="Fill-73" class="st34" d="M2302.9,1152.5h-229.8c-25.1,0-45.2-20.2-45.2-45.2V842.7c0-25.1,20.2-45.2,45.2-45.2h229.8
	c25.1,0,45.2,20.2,45.2,45.2v264.5C2348.2,1132.3,2327.8,1152.5,2302.9,1152.5"/>
<path id="Fill-75" class="st34" d="M2687,1153.1h-230c-25.1,0-45.2-20.2-45.2-45.2V843.4c0-25.1,20.2-45.2,45.2-45.2h229.8
	c25.1,0,45.2,20.2,45.2,45.2v264.5C2732.3,1133,2711.9,1153.1,2687,1153.1"/>
<path id="Fill-76" class="st35" d="M2732.3,866.5H2412v-33.8c0-19.3,15.5-34.7,34.7-34.7h250.9c19.3,0,34.7,15.5,34.7,34.7V866.5z"
	/>
<path id="Fill-77" class="st33" d="M2743,1307.7H1658.8c-7.4,0-13.4-5.2-13.4-11.4c0-6.3,6-11.4,13.4-11.4H2743
	c7.4,0,13.4,5.2,13.4,11.4C2756.2,1302.8,2750.4,1307.7,2743,1307.7"/>
<path id="Fill-78" class="st33" d="M2738.5,1411.2H1654.3c-7.4,0-13.4-5.2-13.4-11.4c0-6.3,6-11.4,13.4-11.4h1084.3
	c7.4,0,13.4,5.2,13.4,11.4C2751.8,1406,2745.9,1411.2,2738.5,1411.2"/>
<path id="Fill-72_1_" class="st13" d="M2348.2,866.5h-320.3v-33.8c0-19.3,15.5-34.7,34.7-34.7h250.9c19.3,0,34.7,15.5,34.7,34.7
	V866.5z"/>
<path class="st36" d="M1102.3,1239.9c29.2,36.1,69.5,72.4,127.2,71.7c108.5-1.3,148-98.8,148-155c0-7-4.6-7.6-8.4-3.8
	c0,0-55.6,66-119.3,68.3c-36.8,1.3-69.3-21.4-91.8-38.8c-2.2-1.7-5.3-1.3-7,0.9c0,0,0,0.1-0.1,0.1
	C1133.3,1206.7,1119.1,1221.9,1102.3,1239.9"/>
<path class="st37" d="M1066.5,1189.7c19.8-8.2,73.8,2.9,91.9-5.2c0,0-36.9-27.6-44.3-44.4c-9.2-20.9-13.7-72.7-8.6-96
	c3.7-16.8,17.2-28.8,33.2-28.8c19.3,0,5.4-13.2,5.6-13.2c-12.5-0.2-42.8,14.3-89.3,30.3c-2.4,9.2-5.5,40.3-6.1,45.3
	C1047.8,1087.3,1049,1146.1,1066.5,1189.7z"/>
<path class="st38" d="M1213,1029c0-21.5-0.2-122.4-99-84.7c-20.6,8.9-61,40.4-65,133.4c46.7-69.6,88.5-62.4,88.5-62.4
	c28.3,1.2,20.2,61.6-22.5,121.8c-7.3,10.7-15.5,20.8-24.4,30.3c-30.1,28.3-60.4,48.2-97.1,47.9c-38.1,0.3-56.8-5.7-95.8-34.7
	c-18.9,25.8-33.3,40.9-51.2,60.1c17.5,20.8,79.8,62.5,151.1,59.8c61.7-2.3,104.6-38.4,126.7-66.5c11.9-15.2,29.9-42,30-42.1
	C1160.7,1184.5,1213,1094.8,1213,1029z"/>
<path class="st39" d="M853.4,1128.5c-7.8-21.4-7.2-61.5-1.9-84.7c3.9-17.1,15.3-29.8,27.2-29.4c19.3,0.6,11.5-11.1,11.7-11.1
	c-12.5-0.2-42.8,14.3-89.3,30.3c-2.4,9.1-4.8,37.9-5.4,42.9c-1.2,10.8,0,57.6,12.8,94.8c19.8-8.2,35.7-22.7,46.6-39.1
	C854.4,1130.9,853.8,1129.6,853.4,1128.5z"/>
<path class="st40" d="M860.5,942c-27.7,13.6-64.7,51.7-64.7,133.9c44.3-69.1,86-60.7,86-60.7c28.9,0.6,16,56.7-26.9,117
	c-11,16.6-26.2,30.8-46.4,39c-2.8,1.1-5.6,2.1-8.5,3c-36.8,10.5-75.4,13.2-113.4,8.1c-5.7-0.9-11.2,2.3-13.3,7.7
	c-8.2,22.8-26.1,75-18.2,94.3c9.4,22.9,34.8,20.2,34.8,20.2c57.9-3.6,115.5-20.5,154.3-61.5l0,0c18.1-19.2,36.4-38.8,51.9-60.6
	c6.4-7.4,63.3-90.1,63.3-155.8C959.5,1005.2,959.3,904.4,860.5,942z"/>
<circle id="Oval" class="st33" cx="1800.8" cy="1007.4" r="77.1"/>
<path id="Combined-Shape_1_" class="st20" d="M1800.8,1011.5c28.4,0,52.2,20.6,56.9,47.7c-14,15.4-34.5,25.1-56.9,25.1
	c-22.6,0-42.9-9.7-56.9-25.1C1748.6,1032.1,1772.3,1011.5,1800.8,1011.5z"/>
<circle id="Oval-Copy_1_" class="st20" cx="1800.8" cy="984.8" r="34.5"/>
<g class="st41">
	<path class="st42" d="M2188.8,934.5c-6.6,3.4-14.1,7.5-16.6,8.5s-6.8,3.6-9.8,5.1c-3,1.5-10,5.3-15.8,8.3
		c-44.2,23-52.5,27.5-52.5,27.5s5.3,3,12,6.4c13.9,7.3,21.8,11.5,34.6,18.4c42.3,22.4,60,31.6,60.2,31.6c0.2,0,12.6-6.6,68.5-36.1
		c7.7-4.1,19.6-10.2,26.3-13.9c6.6-3.4,12.2-6.4,12.2-6.4c0-0.2-7.5-4.1-68.5-35.9c-3.2-1.7-7.3-3.8-9.2-4.7
		c-1.9-0.9-9.2-4.7-16.2-8.5c-7.3-3.6-13-6.8-13-6.8C2200.8,928.3,2195.5,931.1,2188.8,934.5z"/>
	<path class="st42" d="M2109.2,1021.4v26.5l2.3-4.7l2.3-4.7l2.3,4.7l2.3,4.7v-23.9c0-19,0-23.9-0.2-24.1c-0.2-0.2-1.3-0.9-2.8-1.5
		c-1.5-0.9-3.4-1.7-4.5-2.3l-1.9-1.1L2109.2,1021.4z"/>
	<path class="st42" d="M2138.7,1032.2c0,24.5-0.2,22.4,1.3,25.2c3.8,7.7,15.8,13.7,34.4,16.6c16,2.8,36.5,2.8,52.3,0.2
		c13.2-2.3,22.8-5.5,29.2-10c3-2.1,5.5-5.1,6.6-7.7c0.9-2.1,0.9-1.7,0.9-24.8c0-11.7-0.2-21.3-0.2-21.3s-14.1,7.5-31.2,16.4
		l-30.9,16.4l-30.9-16.4c-17.1-9-31.2-16.4-31.2-16.4C2138.7,1010.5,2138.7,1020.3,2138.7,1032.2z"/>
</g>
<g transform="translate(0.000000,640.000000) scale(0.100000,-0.100000)" class="st41">
	<path class="st42" d="M25112.9-3094.1c-78.8-2.7-146.5-7.9-241.4-18.4c-67.6-7.7-203.7-24.2-204.8-24.9
		c-0.4-0.4-7.5-22.8-15.8-49.9c-8.5-27.4-31.3-100.7-50.6-163.5c-19.5-62.6-47.7-153.6-62.6-202.1s-43.1-139.3-62.6-202.1
		c-19.3-62.6-44.6-144.2-56-180.9c-11.4-36.9-21.1-68.6-21.8-70.3c-1-2.5,0.2-2.7,6.6-1.5c6.4,1,7.7,0.8,6.8-1.5
		c-0.6-1.7-3.5-11-6.6-21.1c-3.1-9.9-6.2-19.7-6.8-21.6c-1-2.9-0.2-3.1,5.2-2.1c3.7,0.8,6.6,1,6.6,0.8s-3.3-10.6-7.3-23
		c-3.9-12.6-6.8-23-6.6-23.4c0.4-0.2,5.6,0.8,11.8,2.5c37.1,10.2,138.2,27.8,194.8,34.2c71.1,8.1,188.6,10.8,260.3,6
		c113.6-7.5,229.8-26.9,384.2-64.5c21.6-5.2,79.4-20.5,129.5-34.6c20.5-5.6,57.8-16,82.9-23c25.1-6.8,51.2-14.3,58-16.6
		c6.8-2.1,41.4-12.4,76.7-22.8c35.4-10.6,76.5-22.6,91.2-27.1c14.9-4.4,28.6-8.1,30.5-8.1c3.3,0,3.5,22.2,3.7,345.7
		c0,190-0.4,421.3-1.2,514l-1.5,168.5l-13.7,6.4c-162.1,74.8-298,111.3-454.1,121.9C25213-3094.7,25142.1-3093.3,25112.9-3094.1z"/>
	<path class="st42" d="M26245.5-3094.1c-180.3-7-331.6-44.1-497.6-121.7l-20.1-9.3l-1.2-46.4c-0.6-25.3-1.7-256.8-2.5-514.4
		l-1.2-468.2l6,1.2c3.1,0.4,18.9,5,34.8,9.7c92.6,28,303.8,88.1,404.1,115.2c75.9,20.5,201.2,46.2,280.8,57.6
		c133.5,19.3,280,21.1,407.9,5.4c52.4-6.4,146.3-23.4,182.4-33.2c5.8-1.5,6.6-1.2,5.8,1.7c-7,22.6-13.7,44.6-13.7,45.2
		c0,0.2,2.7-0.4,6.2-1.5c3.3-1.2,7-1.9,8.1-1.5c1,0.2-1.2,11-5.2,23.4c-3.9,12.6-7,23.2-7,23.6c0,0.4,3.3,0,7.5-0.8
		c6.4-1,7.5-0.8,6.4,2.1c-0.8,1.7-7,21.6-14.1,44.1c-6.8,22.4-20.7,67.4-30.9,99.9c-10.2,32.5-34.4,110.9-53.9,174.1
		c-126.2,408.1-170.1,550-170.6,550.4c-0.8,0.4-193.2,23.6-221.1,26.7C26440.7-3098,26314.5-3091.4,26245.5-3094.1z"/>
</g>
</svg>
